<svg width="137" height="65" viewBox="0 0 137 65" fill="none" xmlns="http://www.w3.org/2000/svg">
<mask id="mask0_58_973" style="mask-type:luminance" maskUnits="userSpaceOnUse" x="29" y="10" width="22" height="22">
<path d="M29.6851 10.2029H50.0977V31.4074H29.6851V10.2029Z" fill="white"/>
</mask>
<g mask="url(#mask0_58_973)">
<mask id="mask1_58_973" style="mask-type:luminance" maskUnits="userSpaceOnUse" x="29" y="10" width="21" height="22">
<path d="M42.6964 10.2351C40.67 10.2351 38.4384 10.8047 36.5653 13.0384V10.6417H29.7242V12.8897C32.4696 14.9604 33.7718 16.9074 33.8342 17.0024C34.1625 17.5021 34.1625 18.1452 33.8342 18.6395C33.4115 19.2754 32.673 19.3148 31.9826 19.3041C31.7792 19.3005 29.7242 19.2611 29.7242 19.5513V31.3752H36.9667V21.5969C36.9667 19.0426 38.0798 17.1367 40.3096 17.1367C41.7046 17.1367 42.5805 17.9893 42.5805 20.343V31.3752H49.8229V19.4062C49.8229 13.3232 47.8357 10.2351 42.7 10.2351" fill="white"/>
</mask>
<g mask="url(#mask1_58_973)">
<path d="M-1.28625 -1.1051H124.36V33.5282H-1.28625V-1.1051Z" fill="#151515"/>
</g>
</g>
<mask id="mask2_58_973" style="mask-type:luminance" maskUnits="userSpaceOnUse" x="50" y="10" width="23" height="22">
<path d="M50.8024 10.5575H72.9757V31.4074H50.8024V10.5575Z" fill="white"/>
</mask>
<g mask="url(#mask2_58_973)">
<mask id="mask3_58_973" style="mask-type:luminance" maskUnits="userSpaceOnUse" x="50" y="10" width="23" height="22">
<path d="M65.5031 10.6417L62.4384 21.6793C62.1602 22.6501 62.0014 23.4203 61.7624 24.3141C61.5233 23.4203 61.3646 22.6501 61.0863 21.6793L58.0198 10.6417H50.8577L58.1019 31.3752H65.4264L72.6724 10.6417H65.5031Z" fill="white"/>
</mask>
<g mask="url(#mask3_58_973)">
<path d="M-1.28613 -1.1051H124.36V33.5282H-1.28613V-1.1051Z" fill="#151515"/>
</g>
</g>
<mask id="mask4_58_973" style="mask-type:luminance" maskUnits="userSpaceOnUse" x="73" y="0" width="10" height="32">
<path d="M73.98 0.661011H82.4783V31.4074H73.98V0.661011Z" fill="white"/>
</mask>
<g mask="url(#mask4_58_973)">
<mask id="mask5_58_973" style="mask-type:luminance" maskUnits="userSpaceOnUse" x="73" y="0" width="10" height="32">
<path d="M74.4992 31.3752H81.7417V10.6417H74.4992V31.3752ZM78.0812 0.661011C75.855 0.661011 73.9855 2.56688 73.9855 4.88114C73.9855 7.1542 75.855 9.06186 78.0812 9.06186C80.3913 9.06186 82.2626 7.1542 82.2626 4.88114C82.2626 2.57046 80.3913 0.661011 78.0812 0.661011Z" fill="white"/>
</mask>
<g mask="url(#mask5_58_973)">
<path d="M-1.28625 -1.1051H124.36V33.5282H-1.28625V-1.1051Z" fill="#151515"/>
</g>
</g>
<mask id="mask6_58_973" style="mask-type:luminance" maskUnits="userSpaceOnUse" x="84" y="10" width="15" height="22">
<path d="M84.5903 10.2029H98.64V31.4074H84.5903V10.2029Z" fill="white"/>
</mask>
<g mask="url(#mask6_58_973)">
<mask id="mask7_58_973" style="mask-type:luminance" maskUnits="userSpaceOnUse" x="84" y="10" width="15" height="22">
<path d="M91.9737 14.3352V10.6417H84.9275V31.3752H92.1699V24.3965C92.1699 20.5024 93.3669 18.2688 98.6186 18.2688V10.2351C93.8414 10.2351 92.0897 13.445 91.9737 14.3352Z" fill="white"/>
</mask>
<g mask="url(#mask7_58_973)">
<path d="M-1.28613 -1.1051H124.36V33.5282H-1.28613V-1.1051Z" fill="#151515"/>
</g>
</g>
<mask id="mask8_58_973" style="mask-type:luminance" maskUnits="userSpaceOnUse" x="100" y="10" width="23" height="23">
<path d="M100.467 10.2029H122.601V32.0988H100.467V10.2029Z" fill="white"/>
</mask>
<g mask="url(#mask8_58_973)">
<mask id="mask9_58_973" style="mask-type:luminance" maskUnits="userSpaceOnUse" x="100" y="10" width="23" height="22">
<path d="M111.594 25.2904C109.445 25.2904 107.93 23.5439 107.93 21.0326C107.93 18.5536 109.445 16.7301 111.594 16.7301C113.746 16.7301 115.255 18.5571 115.255 21.0326C115.255 23.5439 113.742 25.2904 111.594 25.2904ZM111.594 10.2351C105.344 10.2351 100.608 15.0231 100.608 21.0326C100.608 26.9974 105.344 31.7853 111.594 31.7853C117.845 31.7853 122.579 26.9974 122.579 21.0326C122.579 15.0231 117.841 10.2351 111.594 10.2351Z" fill="white"/>
</mask>
<g mask="url(#mask9_58_973)">
<path d="M-1.28625 -1.1051H124.36V33.5282H-1.28625V-1.1051Z" fill="#151515"/>
</g>
</g>
<mask id="mask10_58_973" style="mask-type:luminance" maskUnits="userSpaceOnUse" x="0" y="9" width="33" height="24">
<path d="M0.472778 9.62964H32.8533V32.0988H0.472778V9.62964Z" fill="white"/>
</mask>
<g mask="url(#mask10_58_973)">
<mask id="mask11_58_973" style="mask-type:luminance" maskUnits="userSpaceOnUse" x="0" y="9" width="33" height="23">
<path d="M27.2752 13.0026C25.445 11.858 23.117 10.7689 20.2486 10.0865C14.3886 8.68751 9.30823 11.3421 6.93927 15.152C6.7038 15.5336 6.49509 15.9259 6.31313 16.3289C6.42195 16.2536 6.5379 16.1802 6.65028 16.1014C9.81127 14.0307 14.4564 11.7935 20.122 11.4012C20.122 11.4012 19.5101 11.8508 18.8162 12.5261C18.4969 12.836 18.1633 13.1924 17.8565 13.5793C17.8565 13.5793 18.7858 13.3841 20.6785 13.5847C22.4356 13.7692 25.0151 14.2958 28.4508 15.6249C28.5596 15.6679 28.6684 15.7091 28.7772 15.7557C28.7201 15.7378 28.6149 15.7019 28.4597 15.6607C27.5214 15.3921 24.8563 14.7311 21.549 14.8404C18.95 14.9281 15.9584 15.4906 13.0936 17.0884H12.9544C12.9562 17.0633 12.9633 17.0382 12.9669 17.0167C13.3683 16.4346 14.4885 14.8959 15.6498 14.0236C15.6498 14.0236 15.0273 14.0666 13.957 14.2887C12.2997 14.629 9.57045 15.4028 6.43265 17.1188C4.84145 17.9893 3.14858 19.0981 1.43429 20.5186C1.41645 20.5329 1.39862 20.5472 1.38078 20.5651C0.649397 21.1867 0.472796 22.2865 1.0472 23.0675C1.23093 23.3182 1.46997 23.5099 1.77501 23.5475C2.82035 23.6819 2.77575 22.4602 3.05403 21.9712C3.26096 21.6112 4.07797 19.9364 6.23464 18.679C6.20254 19.1017 6.1847 19.537 6.1847 19.9794C6.1847 26.8237 10.2465 31.7818 17.7655 31.7818C24.0125 31.7818 27.9459 28.185 28.5596 24.0598C28.6042 23.7983 28.383 23.5762 28.1225 23.5762H22.787C22.523 23.5762 22.2626 23.7535 22.2198 24.0598C21.6079 26.4278 20.0345 27.3969 17.8493 27.3969C14.9238 27.3969 13.2844 25.7668 12.8581 22.1199C14.1318 22.5946 15.4982 22.8525 16.87 22.7003C18.8982 22.4782 20.509 21.9856 22.2198 21.2512C23.456 20.721 24.7404 20.0672 26.2638 19.2934C27.2913 18.7739 28.2242 18.4264 29.0412 18.1971C31.2621 17.5684 32.6036 17.8192 32.6036 17.8192C32.6036 17.8192 30.9375 15.2918 27.2752 13.0026Z" fill="white"/>
</mask>
<g mask="url(#mask11_58_973)">
<path d="M-1.28613 -1.1051H124.36V33.5282H-1.28613V-1.1051Z" fill="#151515"/>
</g>
</g>
<mask id="mask12_58_973" style="mask-type:luminance" maskUnits="userSpaceOnUse" x="6" y="36" width="21" height="23">
<path d="M6.15784 36.7255H26.9433V58.2829H6.15784V36.7255Z" fill="white"/>
</mask>
<g mask="url(#mask12_58_973)">
<mask id="mask13_58_973" style="mask-type:luminance" maskUnits="userSpaceOnUse" x="6" y="36" width="21" height="23">
<path d="M13.0845 45.7335C13.5216 43.8295 14.954 42.5272 16.745 42.5272C18.6145 42.5272 20.088 43.8295 20.3288 45.7335H13.0845ZM26.9344 47.5176C26.938 41.5134 22.5176 36.7255 16.745 36.7255C10.737 36.7255 6.15784 41.5134 6.15784 47.5176C6.15784 54.3386 11.4131 58.2721 17.5834 58.2721C20.088 58.2721 22.5978 57.7455 24.8687 56.3251L22.4391 51.3347C21.1654 52.0637 19.3352 52.5939 17.6209 52.5939C15.6711 52.5939 13.8801 51.8649 13.2861 49.9143H26.7756C26.7756 49.9143 26.9344 48.7804 26.9344 47.5176Z" fill="white"/>
</mask>
<g mask="url(#mask13_58_973)">
<path d="M4.39893 34.9575H137.788V65.7039H4.39893V34.9575Z" fill="#151515"/>
</g>
</g>
<mask id="mask14_58_973" style="mask-type:luminance" maskUnits="userSpaceOnUse" x="29" y="36" width="22" height="22">
<path d="M29.6833 36.7255H50.1531V57.93H29.6833V36.7255Z" fill="white"/>
</mask>
<g mask="url(#mask14_58_973)">
<mask id="mask15_58_973" style="mask-type:luminance" maskUnits="userSpaceOnUse" x="29" y="36" width="21" height="22">
<path d="M42.6984 36.7255C40.6701 36.7255 38.4385 37.2951 36.5673 39.5234V37.1321H29.7208V57.8655H36.9651V48.0872C36.9651 45.5329 38.0764 43.6235 40.308 43.6235C41.7012 43.6235 42.5788 44.4761 42.5788 46.8298V57.8655H49.8213V45.8965C49.8213 39.81 47.8323 36.7255 42.6984 36.7255Z" fill="white"/>
</mask>
<g mask="url(#mask15_58_973)">
<path d="M4.39905 34.9575H137.789V65.7039H4.39905V34.9575Z" fill="#151515"/>
</g>
</g>
<mask id="mask16_58_973" style="mask-type:luminance" maskUnits="userSpaceOnUse" x="52" y="36" width="22" height="23">
<path d="M52.2633 36.7255H73.3806V58.2829H52.2633V36.7255Z" fill="white"/>
</mask>
<g mask="url(#mask16_58_973)">
<mask id="mask17_58_973" style="mask-type:luminance" maskUnits="userSpaceOnUse" x="52" y="36" width="22" height="23">
<path d="M59.3345 45.7335C59.7716 43.8295 61.204 42.5272 62.995 42.5272C64.8681 42.5272 66.338 43.8295 66.577 45.7335H59.3345ZM73.1844 47.5176C73.1844 41.5134 68.7676 36.7255 62.995 36.7255C56.987 36.7255 52.4078 41.5134 52.4078 47.5176C52.4078 54.3386 57.6631 58.2721 63.8334 58.2721C66.338 58.2721 68.8478 57.7455 71.1187 56.3251L68.6891 51.3347C67.4154 52.0637 65.5852 52.5939 63.8745 52.5939C61.9211 52.5939 60.1337 51.8649 59.5343 49.9143H73.0292C73.0292 49.9143 73.188 48.7804 73.188 47.5176" fill="white"/>
</mask>
<g mask="url(#mask17_58_973)">
<path d="M4.39893 34.9575H137.788V65.7039H4.39893V34.9575Z" fill="#151515"/>
</g>
</g>
<mask id="mask18_58_973" style="mask-type:luminance" maskUnits="userSpaceOnUse" x="75" y="36" width="15" height="22">
<path d="M75.8441 36.7255H89.9223V57.93H75.8441V36.7255Z" fill="white"/>
</mask>
<g mask="url(#mask18_58_973)">
<mask id="mask19_58_973" style="mask-type:luminance" maskUnits="userSpaceOnUse" x="75" y="36" width="15" height="22">
<path d="M83.017 40.822V37.1321H75.9708V57.8655H83.2151V50.8869C83.2151 46.9946 84.4102 44.7609 89.6619 44.7609V36.7255C84.8865 36.7255 83.133 39.93 83.017 40.822Z" fill="white"/>
</mask>
<g mask="url(#mask19_58_973)">
<path d="M4.39905 34.9575H137.789V65.7039H4.39905V34.9575Z" fill="#151515"/>
</g>
</g>
<mask id="mask20_58_973" style="mask-type:luminance" maskUnits="userSpaceOnUse" x="91" y="36" width="22" height="28">
<path d="M91.3334 36.7255H112.797V63.9378H91.3334V36.7255Z" fill="white"/>
</mask>
<g mask="url(#mask20_58_973)">
<mask id="mask21_58_973" style="mask-type:luminance" maskUnits="userSpaceOnUse" x="91" y="36" width="22" height="28">
<path d="M102.279 50.2779C100.369 50.2779 99.0164 48.8144 99.0164 46.7098C99.0164 44.6033 100.369 43.0969 102.279 43.0969C104.191 43.0969 105.542 44.5961 105.542 46.7098C105.542 48.8216 104.191 50.2779 102.279 50.2779ZM105.9 37.1321V39.4428C104.785 37.3327 102.199 36.7255 100.568 36.7255C94.9135 36.7255 91.6509 41.1892 91.6509 46.7098C91.6509 52.1837 94.9135 56.6493 100.568 56.6493C102.199 56.6493 104.388 56.0814 105.504 54.5786C105.504 54.9852 105.422 55.3918 105.263 55.7949C104.785 57.1347 103.433 58.3527 100.806 58.3527C99.1752 58.3527 96.8669 58.0679 95.2757 57.0147L92.6891 61.6396C94.5193 62.8989 97.6232 63.8321 101.603 63.8321C110.16 63.8321 112.747 58.1521 112.747 52.2249V37.1321H105.9Z" fill="white"/>
</mask>
<g mask="url(#mask21_58_973)">
<path d="M4.39905 34.9575H137.789V65.7039H4.39905V34.9575Z" fill="#151515"/>
</g>
</g>
<mask id="mask22_58_973" style="mask-type:luminance" maskUnits="userSpaceOnUse" x="114" y="37" width="23" height="27">
<path d="M114.208 37.0784H136.379V63.9378H114.208V37.0784Z" fill="white"/>
</mask>
<g mask="url(#mask22_58_973)">
<mask id="mask23_58_973" style="mask-type:luminance" maskUnits="userSpaceOnUse" x="114" y="37" width="23" height="27">
<path d="M129.028 37.1321L126.72 44.1107C126.202 45.6941 125.483 48.1678 125.483 48.1678C125.483 48.1678 124.727 45.6941 124.131 44.1107L121.545 37.1321H114.379L122.26 54.7416L121.661 55.8755C121.384 56.3645 120.828 57.2977 118.121 57.2977V63.8285C120.904 63.8285 125.321 63.4631 127.672 57.7419L136.19 37.1321H129.028Z" fill="white"/>
</mask>
<g mask="url(#mask23_58_973)">
<path d="M4.39893 34.9575H137.788V65.7039H4.39893V34.9575Z" fill="#151515"/>
</g>
</g>
</svg>
